<?xml version="1.0" encoding="us-ascii" standalone="no"?><svg xmlns="http://www.w3.org/2000/svg" xmlns:xlink="http://www.w3.org/1999/xlink" contentStyleType="text/css" height="890px" preserveAspectRatio="none" style="width:947px;height:890px;background:#FFFFFF;" version="1.1" viewBox="0 0 947 890" width="947px" zoomAndPan="magnify"><defs/><g><text fill="#000000" font-family="sans-serif" font-size="14" font-weight="bold" lengthAdjust="spacing" textLength="59" x="437.234" y="24.5332">Systeme</text><!--entity Admin--><g id="elem_Admin"><ellipse cx="201.5" cy="188.6094" fill="#F1F1F1" rx="8" ry="8" style="stroke:#181818;stroke-width:0.5;"/><path d="M201.5,196.6094 L201.5,223.6094 M188.5,204.6094 L214.5,204.6094 M201.5,223.6094 L188.5,238.6094 M201.5,223.6094 L214.5,238.6094 " fill="none" style="stroke:#181818;stroke-width:0.5;"/><text fill="#000000" font-family="sans-serif" font-size="14" lengthAdjust="spacing" textLength="39" x="182" y="254.6426">Admin</text></g><!--entity member--><g id="elem_member"><ellipse cx="201.5" cy="393.6094" fill="#F1F1F1" rx="8" ry="8" style="stroke:#181818;stroke-width:0.5;"/><path d="M201.5,401.6094 L201.5,428.6094 M188.5,409.6094 L214.5,409.6094 M201.5,428.6094 L188.5,443.6094 M201.5,428.6094 L214.5,443.6094 " fill="none" style="stroke:#181818;stroke-width:0.5;"/><text fill="#000000" font-family="sans-serif" font-size="14" lengthAdjust="spacing" textLength="51" x="176" y="459.6426">Membre</text></g><!--entity Client--><g id="elem_Client"><ellipse cx="24" cy="689.6094" fill="#F1F1F1" rx="8" ry="8" style="stroke:#181818;stroke-width:0.5;"/><path d="M24,697.6094 L24,724.6094 M11,705.6094 L37,705.6094 M24,724.6094 L11,739.6094 M24,724.6094 L37,739.6094 " fill="none" style="stroke:#181818;stroke-width:0.5;"/><text fill="#000000" font-family="sans-serif" font-size="14" lengthAdjust="spacing" textLength="36" x="6" y="755.6426">Client</text></g><g id="elem_Login"><ellipse cx="905.234" cy="416.0611" fill="#F1F1F1" rx="36.234" ry="15.4517" style="stroke:#181818;stroke-width:0.5;"/><text fill="#000000" font-family="sans-serif" font-size="14" lengthAdjust="spacing" textLength="35" x="887.734" y="419.7896">Login</text></g><g id="elem_Displayclient"><ellipse cx="641.535" cy="64.9164" fill="#F1F1F1" rx="89.535" ry="20.307" style="stroke:#181818;stroke-width:0.5;"/><text fill="#000000" font-family="sans-serif" font-size="14" lengthAdjust="spacing" textLength="137" x="573.035" y="68.6449">Affiche les utilisateurs</text></g><g id="elem_changeEtat"><ellipse cx="641.434" cy="497.0962" fill="#F1F1F1" rx="110.434" ry="24.4868" style="stroke:#181818;stroke-width:0.5;"/><text fill="#000000" font-family="sans-serif" font-size="14" lengthAdjust="spacing" textLength="184" x="549.434" y="500.8247">Changer l'&#233;tat de reservation</text></g><g id="elem_CRUDvoyage"><ellipse cx="641.5039" cy="137.1102" fill="#F1F1F1" rx="70.5039" ry="16.5008" style="stroke:#181818;stroke-width:0.5;"/><text fill="#000000" font-family="sans-serif" font-size="14" lengthAdjust="spacing" textLength="89" x="594.0039" y="141.6268">CRUD voyage</text></g><g id="elem_CRUDmembre"><ellipse cx="641.2859" cy="205.9666" fill="#F1F1F1" rx="72.2859" ry="16.8572" style="stroke:#181818;stroke-width:0.5;"/><text fill="#000000" font-family="sans-serif" font-size="14" lengthAdjust="spacing" textLength="94" x="591.2859" y="210.4832">CRUD membre</text></g><g id="elem_CRUDversion"><ellipse cx="641.5039" cy="343.1102" fill="#F1F1F1" rx="70.5039" ry="16.5008" style="stroke:#181818;stroke-width:0.5;"/><text fill="#000000" font-family="sans-serif" font-size="14" lengthAdjust="spacing" textLength="89" x="594.0039" y="347.6268">CRUD version</text></g><g id="elem_Displayprofile"><ellipse cx="641.3567" cy="275.1807" fill="#F1F1F1" rx="70.8567" ry="16.5713" style="stroke:#181818;stroke-width:0.5;"/><text fill="#000000" font-family="sans-serif" font-size="14" lengthAdjust="spacing" textLength="90" x="593.3567" y="279.6973">afficher profile</text></g><g id="elem_Displayreservation"><ellipse cx="641.6904" cy="416.0474" fill="#F1F1F1" rx="95.1904" ry="21.4381" style="stroke:#181818;stroke-width:0.5;"/><text fill="#000000" font-family="sans-serif" font-size="14" lengthAdjust="spacing" textLength="150" x="566.6904" y="419.776">Afficher les Reservation</text></g><g id="elem_Auth"><ellipse cx="201.376" cy="585.1846" fill="#F1F1F1" rx="73.376" ry="17.0752" style="stroke:#181818;stroke-width:0.5;"/><text fill="#000000" font-family="sans-serif" font-size="14" lengthAdjust="spacing" textLength="97" x="149.876" y="589.7012">Authentification</text></g><g id="elem_Reservation"><ellipse cx="201.6926" cy="668.1479" fill="#F1F1F1" rx="85.6926" ry="19.5385" style="stroke:#181818;stroke-width:0.5;"/><text fill="#000000" font-family="sans-serif" font-size="14" lengthAdjust="spacing" textLength="128" x="137.6926" y="671.8764">Faire un reservation</text></g><g id="elem_AddFavorite"><ellipse cx="201.7239" cy="748.2542" fill="#F1F1F1" rx="98.7239" ry="22.1448" style="stroke:#181818;stroke-width:0.5;"/><text fill="#000000" font-family="sans-serif" font-size="14" lengthAdjust="spacing" textLength="158" x="122.7239" y="751.9827">Ajouter version &#224; favorite</text></g><g id="elem_DisplayVersions"><ellipse cx="415.2698" cy="832.0633" fill="#F1F1F1" rx="85.2698" ry="19.454" style="stroke:#181818;stroke-width:0.5;"/><text fill="#000000" font-family="sans-serif" font-size="14" lengthAdjust="spacing" textLength="127" x="351.7698" y="835.7918">Afficher les versions</text></g><!--link Admin to Displayclient--><g id="link_Admin_Displayclient"><path d="M221.08,203.4594 C244.83,184.2594 287.91,152.0694 330,134.1094 C405.17,102.0294 497.2,83.9794 561.48,74.4594 " fill="none" id="Admin-Displayclient" style="stroke:#181818;stroke-width:1.0;"/></g><!--link Admin to changeEtat--><g id="link_Admin_changeEtat"><path d="M221,253.7494 C242.57,291.0594 281.52,349.8194 330,385.1094 C395.24,432.5994 425.11,418.6994 501,446.1094 C528.16,455.9194 558.26,466.9094 583.52,476.1594 " fill="none" id="Admin-changeEtat" style="stroke:#181818;stroke-width:1.0;"/></g><!--link Admin to CRUDvoyage--><g id="link_Admin_CRUDvoyage"><path d="M221.1,210.8594 C245.56,200.3594 290.14,182.4794 330,173.1094 C412.02,153.8294 508.75,144.6994 572.19,140.4894 " fill="none" id="Admin-CRUDvoyage" style="stroke:#181818;stroke-width:1.0;"/></g><!--link Admin to CRUDmembre--><g id="link_Admin_CRUDmembre"><path d="M221.41,215.3894 C246.22,210.7294 291.17,202.9894 330,200.1094 C413.07,193.9494 508.97,197.4094 571.95,201.1194 " fill="none" id="Admin-CRUDmembre" style="stroke:#181818;stroke-width:1.0;"/></g><!--link Admin to CRUDversion--><g id="link_Admin_CRUDversion"><path d="M221.04,224.3594 C285.6,242.6294 501.73,303.8194 595.95,330.4994 " fill="none" id="Admin-CRUDversion" style="stroke:#181818;stroke-width:1.0;"/></g><!--link Admin to Displayprofile--><g id="link_Admin_Displayprofile"><path d="M221.14,219.4094 C268.29,220.4094 396.03,224.5594 501,241.1094 C533.26,246.1894 569.03,254.9794 596.27,262.3394 " fill="none" id="Admin-Displayprofile" style="stroke:#181818;stroke-width:1.0;"/></g><!--link Admin to Displayreservation--><g id="link_Admin_Displayreservation"><path d="M221.19,235.3794 C245.05,255.4694 288.26,289.6094 330,311.1094 C410.82,352.7294 511.68,383.2894 576.1,400.3894 " fill="none" id="Admin-Displayreservation" style="stroke:#181818;stroke-width:1.0;"/></g><!--link member to CRUDversion--><g id="link_member_CRUDversion"><path d="M227.3,419.5194 C295.98,406.8194 489.86,370.9694 585.6,353.2594 " fill="none" id="member-CRUDversion" style="stroke:#181818;stroke-width:1.0;"/></g><!--link member to Displayprofile--><g id="link_member_Displayprofile"><path d="M227.19,409.5694 C252.37,395.2194 292.91,373.3994 330,359.1094 C417.93,325.2194 524.86,299.5094 587.53,285.9194 " fill="none" id="member-Displayprofile" style="stroke:#181818;stroke-width:1.0;"/></g><!--link member to Displayreservation--><g id="link_member_Displayreservation"><path d="M227.3,423.6594 C287.57,422.5494 444.23,419.6894 546.4,417.8294 " fill="none" id="member-Displayreservation" style="stroke:#181818;stroke-width:1.0;"/></g><!--link member to changeEtat--><g id="link_member_changeEtat"><path d="M227.3,428.2394 C288.83,438.4994 450.85,465.4994 552.77,482.4894 " fill="none" id="member-changeEtat" style="stroke:#181818;stroke-width:1.0;"/></g><!--link Displayclient to Login--><g id="link_Displayclient_Login"><path d="M709.66,78.6494 C753.56,91.1394 808.25,114.3194 839,156.1094 C896.35,234.0594 903.3328,350.98 903.9628,394.34 " fill="none" id="Displayclient-to-Login" style="stroke:#181818;stroke-width:1.0;"/><polygon fill="#181818" points="904.05,400.3394,907.9188,391.2822,903.9774,395.3399,899.9197,391.3984,904.05,400.3394" style="stroke:#181818;stroke-width:1.0;"/><text fill="#000000" font-family="sans-serif" font-size="13" lengthAdjust="spacing" textLength="55" x="783" y="107.6045">&#171;include&#187;</text></g><!--link changeEtat to Login--><g id="link_changeEtat_Login"><path d="M715.4,478.7094 C752.66,468.7994 798.57,455.8094 839,442.1094 C852.35,437.5794 861.4054,434.1123 873.3754,429.1623 " fill="none" id="changeEtat-to-Login" style="stroke:#181818;stroke-width:1.0;"/><polygon fill="#181818" points="878.92,426.8694,869.0745,426.6123,874.2995,428.7801,872.1317,434.0051,878.92,426.8694" style="stroke:#181818;stroke-width:1.0;"/><text fill="#000000" font-family="sans-serif" font-size="13" lengthAdjust="spacing" textLength="55" x="783" y="438.6045">&#171;include&#187;</text></g><!--link CRUDvoyage to Login--><g id="link_CRUDvoyage_Login"><path d="M696.87,147.3394 C741.89,158.7394 803.96,181.7194 839,226.1094 C882.1,280.6994 896.6974,359.6433 901.3974,394.4633 " fill="none" id="CRUDvoyage-to-Login" style="stroke:#181818;stroke-width:1.0;"/><polygon fill="#181818" points="902.2,400.4094,904.9602,390.9552,901.5312,395.4543,897.032,392.0253,902.2,400.4094" style="stroke:#181818;stroke-width:1.0;"/><text fill="#000000" font-family="sans-serif" font-size="13" lengthAdjust="spacing" textLength="55" x="783" y="178.6045">&#171;include&#187;</text></g><!--link CRUDmembre to Login--><g id="link_CRUDmembre_Login"><path d="M695.42,217.4994 C739.23,229.4694 800.35,252.3694 839,293.1094 C869.75,325.5194 888.003,369.6615 896.873,394.7915 " fill="none" id="CRUDmembre-to-Login" style="stroke:#181818;stroke-width:1.0;"/><polygon fill="#181818" points="898.87,400.4494,899.6464,390.6312,897.2058,395.7345,892.1025,393.2939,898.87,400.4494" style="stroke:#181818;stroke-width:1.0;"/><text fill="#000000" font-family="sans-serif" font-size="13" lengthAdjust="spacing" textLength="55" x="783" y="248.6045">&#171;include&#187;</text></g><!--link CRUDversion to Login--><g id="link_CRUDversion_Login"><path d="M696.03,353.7094 C735.87,362.1194 791.36,374.9694 839,390.1094 C852.55,394.4094 861.7534,397.9071 873.7734,402.9271 " fill="none" id="CRUDversion-to-Login" style="stroke:#181818;stroke-width:1.0;"/><polygon fill="#181818" points="879.31,405.2394,872.5467,398.0799,874.6962,403.3125,869.4637,405.462,879.31,405.2394" style="stroke:#181818;stroke-width:1.0;"/><text fill="#000000" font-family="sans-serif" font-size="13" lengthAdjust="spacing" textLength="55" x="783" y="371.6045">&#171;include&#187;</text></g><!--link Displayprofile to Login--><g id="link_Displayprofile_Login"><path d="M693.13,286.5294 C734.97,297.6794 794.51,317.6294 839,349.1094 C860.3,364.1794 876.7141,382.151 888.7841,396.861 " fill="none" id="Displayprofile-to-Login" style="stroke:#181818;stroke-width:1.0;"/><polygon fill="#181818" points="892.59,401.4994,889.9733,392.0045,889.4184,397.634,883.7888,397.0791,892.59,401.4994" style="stroke:#181818;stroke-width:1.0;"/><text fill="#000000" font-family="sans-serif" font-size="13" lengthAdjust="spacing" textLength="55" x="783" y="315.6045">&#171;include&#187;</text></g><!--link DisplayVersions to Login--><g id="link_DisplayVersions_Login"><path d="M475.27,846.0994 C569.45,864.5994 752.38,883.5194 839,777.1094 C883.32,722.6594 899.1711,500.1792 902.8011,437.8592 " fill="none" id="DisplayVersions-to-Login" style="stroke:#181818;stroke-width:1.0;"/><polygon fill="#181818" points="903.15,431.8694,898.6334,440.6215,902.8593,436.8609,906.6199,441.0867,903.15,431.8694" style="stroke:#181818;stroke-width:1.0;"/><text fill="#000000" font-family="sans-serif" font-size="13" lengthAdjust="spacing" textLength="55" x="614" y="835.6045">&#171;include&#187;</text></g><!--link Displayreservation to Login--><g id="link_Displayreservation_Login"><path d="M736.54,416.1094 C782.52,416.1094 829.08,416.1094 862.87,416.1094 " fill="none" id="Displayreservation-to-Login" style="stroke:#181818;stroke-width:1.0;"/><polygon fill="#181818" points="868.87,416.1094,859.87,412.1094,863.87,416.1094,859.87,420.1094,868.87,416.1094" style="stroke:#181818;stroke-width:1.0;"/><text fill="#000000" font-family="sans-serif" font-size="13" lengthAdjust="spacing" textLength="55" x="783" y="412.6045">&#171;include&#187;</text></g><!--link Client to Auth--><g id="link_Client_Auth"><path d="M42.26,695.3294 C56.74,675.9394 78.88,649.2894 103,631.1094 C120.49,617.9294 142.35,607.1794 160.95,599.4094 " fill="none" id="Client-Auth" style="stroke:#181818;stroke-width:1.0;"/></g><!--link Client to Reservation--><g id="link_Client_Reservation"><path d="M42.25,712.9894 C51.07,709.4894 62.02,705.3294 72,702.1094 C94.62,694.8094 119.84,687.8794 141.91,682.1994 " fill="none" id="Client-Reservation" style="stroke:#181818;stroke-width:1.0;"/></g><!--link Client to AddFavorite--><g id="link_Client_AddFavorite"><path d="M42.15,722.8394 C60.6,725.7894 91.3,730.6894 120.77,735.3894 " fill="none" id="Client-AddFavorite" style="stroke:#181818;stroke-width:1.0;"/></g><!--link Client to DisplayVersions--><g id="link_Client_DisplayVersions"><path d="M42.09,739.9794 C56.64,755.4894 78.95,776.1794 103,787.1094 C175.01,819.8294 265.17,829.9394 329.94,832.5394 " fill="none" id="Client-DisplayVersions" style="stroke:#181818;stroke-width:1.0;"/></g><!--link Auth to Login--><g id="link_Auth_Login"><path d="M261.95,594.8394 C366.01,609.1694 585.89,627.2194 752,557.1094 C817,529.6694 868.0521,466.4599 890.0621,436.0499 " fill="none" id="Auth-to-Login" style="stroke:#181818;stroke-width:1.0;"/><polygon fill="#181818" points="893.58,431.1894,885.0628,436.1348,890.6484,435.2398,891.5435,440.8254,893.58,431.1894" style="stroke:#181818;stroke-width:1.0;"/><text fill="#000000" font-family="sans-serif" font-size="13" lengthAdjust="spacing" textLength="55" x="614" y="553.6045">&#171;include&#187;</text></g><!--link Reservation to Login--><g id="link_Reservation_Login"><path d="M275.01,678.0894 C383.67,689.8494 592.95,699.9394 752,631.1094 C839.47,593.2494 883.4251,480.1422 897.4151,437.3622 " fill="none" id="Reservation-to-Login" style="stroke:#181818;stroke-width:1.0;"/><polygon fill="#181818" points="899.28,431.6594,892.6807,438.9703,897.7259,436.4117,900.2845,441.4569,899.28,431.6594" style="stroke:#181818;stroke-width:1.0;"/><text fill="#000000" font-family="sans-serif" font-size="13" lengthAdjust="spacing" textLength="55" x="614" y="627.6045">&#171;include&#187;</text></g><!--link AddFavorite to Login--><g id="link_AddFavorite_Login"><path d="M286.47,759.3594 C398.19,770.5694 599.36,777.3994 752,708.1094 C864.15,657.1994 894.4048,491.0278 901.4248,437.8478 " fill="none" id="AddFavorite-to-Login" style="stroke:#181818;stroke-width:1.0;"/><polygon fill="#181818" points="902.21,431.8994,897.0666,440.2985,901.5557,436.8564,904.9978,441.3454,902.21,431.8994" style="stroke:#181818;stroke-width:1.0;"/><text fill="#000000" font-family="sans-serif" font-size="13" lengthAdjust="spacing" textLength="55" x="614" y="704.6045">&#171;include&#187;</text></g><!--SRC=[XLDBRiCW4DrpYb4sNUK2LHGfIffLkqdLxgazjgcmYG17ocswxJboiMB0uMFHUCMyUVFWpOmvDXgq0CdQJaFD95QQYG68PfeZl5-LnXw1q4eB2QjTtRDX1LI1FStm6_PV4YtUcoFAER7d30Tj4-v8oAYmeWfXzIfQhsLF8R5h6bPr21mLZ9fnfgZ6KIhBFJ1rvlHQERLxpRwZGuiI-DFjLrFZ146YGdcXanrRMLdAYyb6PQUF0rp4bRRkzLFimepJ1uTJxC9S1wMQBxD2BWuiwen9E4lHC8wn8GyjkY1j6qwP5ryKMIHHPtUZxantc1489HCOA4TgHWtZiEXIT5Ca-2r6RPxY7S7j1nfw4P9fzCjG7trSCE0hanb-UemGkqomNcVJlSFHwEvODAe4ywD9UNuI-JrpqtCyxQjRwLmhe9dO8X6hXMJaYP34jybktJy1px3PiA7YOutRBGabHKheohyKroHBASluOPTqKjkFQFEm7_6YPXMfqxUVM-KMEuJn0aUaQ4C3kbn4esKIXNjFoTiAfEYcCedy0G00]--></g></svg>